# xmcd
#
# Track frame offsets: 
#        150
#        23315
#        33213
#        49920
#        76757
#        88138
#        104819
#        118695
#        131554
#        145510
#
# Disc length: 2122 seconds
#
# Revision: 0
# Processed by: cddbd v1.5.1PL0 Copyright (c) Steve Scherf et al.
# Submitted via: ExactAudioCopy v0.95a5
#
DISCID=7808480a
DTITLE=The Watts 103rd Street Rhythm Band - In the Jungle, Babe
DYEAR=1969
DGENRE=R&B
TTITLE0=Till You Get Enough
TTITLE1=I'm a Midnight Mover
TTITLE2=Light My Fire
TTITLE3=Comment
TTITLE4=Everyday People
TTITLE5=Must Be Your Thing
TTITLE6=Love Land
TTITLE7=Oh Happy Gabe (Sometimes Blue)
TTITLE8=Twenty-Five Miles
TTITLE9=The Joker (On a Trip Through the Jungle)
EXTD=
EXTT0=
EXTT1=
EXTT2=
EXTT3=
EXTT4=
EXTT5=
EXTT6=
EXTT7=
EXTT8=
EXTT9=
PLAYORDER=
